<svg width="20" height="20" viewBox="0 0 20 20" fill="none" xmlns="http://www.w3.org/2000/svg">
<path d="M17.8438 17.1562C18.0312 17.3438 18.0312 17.6875 17.8438 17.875C17.75 17.9688 17.625 18 17.5 18C17.3438 18 17.2188 17.9688 17.0938 17.875L12.6875 13.4375C11.5312 14.4375 10.0625 15 8.46875 15C4.90625 15 2 12.0938 2 8.5C2 4.9375 4.875 2 8.46875 2C12.0312 2 14.9688 4.9375 14.9688 8.5C14.9688 10.125 14.4062 11.5938 13.4062 12.75L17.8438 17.1562ZM8.5 14C11.5312 14 14 11.5625 14 8.5C14 5.46875 11.5312 3 8.5 3C5.4375 3 3 5.46875 3 8.5C3 11.5312 5.4375 14 8.5 14Z" fill="white"/>
</svg>
